<?xml version="1.0" encoding="UTF-8"?>
<svg version="1.1" xmlns="http://www.w3.org/2000/svg" width="2048" height="2048">
<path d="M0 0 C6.19027197 0.00769408 12.38052212 -0.00220247 18.57079088 -0.00973 C29.39228645 -0.02050849 40.21372424 -0.0203737 51.03521889 -0.01258852 C62.63103136 -0.00429743 74.22681745 -0.00262347 85.82263153 -0.00880052 C86.55853499 -0.00918804 87.29443845 -0.00957556 88.05264202 -0.00997482 C91.05049025 -0.01157486 94.04833846 -0.01322102 97.04618663 -0.01492565 C124.88649239 -0.0307448 152.72678048 -0.03189145 180.56708878 -0.02348329 C207.38893339 -0.01538675 234.21076966 -0.01222266 261.03261536 -0.01604463 C262.72048903 -0.01627707 264.4083627 -0.01650854 266.09623637 -0.01673904 C272.87991464 -0.01767053 279.66359291 -0.01862654 286.44727117 -0.01961833 C305.40771615 -0.02236869 324.36816115 -0.02408098 343.3286063 -0.02497675 C344.62347933 -0.02503815 344.62347933 -0.02503815 345.9445114 -0.0251008 C373.43110344 -0.02632774 400.91769294 -0.02295259 428.40428417 -0.01642801 C429.74057458 -0.01611189 429.74057458 -0.01611189 431.10386076 -0.01578938 C445.56881187 -0.01235497 460.03376292 -0.00869638 474.49871397 -0.00501886 C531.86290703 0.00954962 589.22707908 0.00887221 646.59127205 -0.00571062 C661.05029996 -0.00937449 675.50932787 -0.01300777 689.96835583 -0.01642801 C690.85877314 -0.01663936 691.74919046 -0.0168507 692.66659012 -0.01706845 C720.12668817 -0.02354145 747.58678448 -0.02627899 775.04688328 -0.02497675 C775.90947625 -0.02493599 776.77206921 -0.02489524 777.66080136 -0.02485325 C796.59993406 -0.02391563 815.53906659 -0.02201435 834.47819911 -0.01924524 C841.25532166 -0.01825791 848.03244422 -0.01731865 854.80956677 -0.01639311 C856.49538021 -0.01616094 858.18119365 -0.01592475 859.86700709 -0.01568452 C886.67699857 -0.0118745 913.4869809 -0.01613877 940.29697118 -0.02423495 C968.05954329 -0.03252712 995.82209429 -0.02943033 1023.58466339 -0.01364106 C1026.57226423 -0.01198417 1029.55986509 -0.01037403 1032.54746598 -0.00880052 C1033.64720301 -0.00821459 1033.64720301 -0.00821459 1034.76915696 -0.00761683 C1046.32881678 -0.00172396 1057.88845012 -0.0057933 1069.44810754 -0.01410754 C1080.84345689 -0.02208778 1092.23875117 -0.01892793 1103.63409897 -0.00506528 C1109.71728574 0.00203525 1115.80037332 0.00458644 1121.88355679 -0.00628323 C1146.14549147 -0.046497 1170.04019175 0.11235227 1194.11934822 3.38540266 C1195.36625839 3.54970931 1195.36625839 3.54970931 1196.63835866 3.71733528 C1200.81620216 4.27181007 1204.96828969 4.90702539 1209.11934822 5.63540266 C1210.94550667 5.95009505 1210.94550667 5.95009505 1212.80855721 6.27114485 C1278.90839376 18.0218501 1343.31705158 44.00919972 1397.40352791 84.11391829 C1399.27371747 85.49979581 1401.15368261 86.87187044 1403.03341072 88.24477766 C1412.08589992 94.90057256 1420.71183669 101.93401855 1429.11934822 109.38540266 C1430.00106697 110.16657454 1430.88278572 110.94774641 1431.79122322 111.75259016 C1434.24662847 113.94994327 1436.68484767 116.16492413 1439.11934822 118.38540266 C1440.07454354 119.24778548 1441.02973885 120.11016829 1442.01387947 120.99868391 C1450.89422707 129.04045147 1459.61054472 137.25303836 1467.39278572 146.38149641 C1469.33675868 148.63773652 1471.3525834 150.81904159 1473.36934822 153.01040266 C1478.47244829 158.66799917 1483.13343449 164.63120438 1487.7814576 170.66225813 C1488.99821921 172.2293938 1490.23729778 173.77913779 1491.47872322 175.32680891 C1503.64972778 190.6630915 1514.48907095 207.34124313 1524.11934822 224.38540266 C1524.79876473 225.58616438 1524.79876473 225.58616438 1525.49190682 226.81118391 C1567.22987329 301.02422934 1583.6560211 380.65844565 1583.50475089 465.26605444 C1583.49705681 471.45632641 1583.50695336 477.64657655 1583.51448088 483.83684532 C1583.52525938 494.65834089 1583.52512459 505.47977868 1583.5173394 516.30127333 C1583.50904832 527.8970858 1583.50737435 539.49287189 1583.51355141 551.08868597 C1583.51393893 551.82458943 1583.51432645 552.56049289 1583.51472571 553.31869646 C1583.51632575 556.31654469 1583.5179719 559.3143929 1583.51967653 562.31224107 C1583.53549569 590.15254683 1583.53664234 617.99283492 1583.52823418 645.83314322 C1583.52013764 672.65498783 1583.51697355 699.4768241 1583.52079552 726.2986698 C1583.52102796 727.98654347 1583.52125943 729.67441714 1583.52148993 731.36229081 C1583.52242141 738.14596908 1583.52337742 744.92964735 1583.52436922 751.71332561 C1583.52711958 770.67377059 1583.52883187 789.63421559 1583.52972763 808.59466074 C1583.52976857 809.45790942 1583.52980951 810.32115811 1583.52985169 811.21056584 C1583.53107862 838.69715788 1583.52770348 866.18374737 1583.5211789 893.67033861 C1583.52096815 894.56119889 1583.5207574 895.45205916 1583.52054027 896.3699152 C1583.51710585 910.83486631 1583.51344726 925.29981736 1583.50976975 939.76476841 C1583.49520126 997.12896147 1583.49587868 1054.49313352 1583.5104615 1111.85732649 C1583.51412538 1126.3163544 1583.51775866 1140.7753823 1583.5211789 1155.23441027 C1583.52149591 1156.57003624 1583.52149591 1156.57003624 1583.52181933 1157.93264456 C1583.52829233 1185.39274261 1583.53102988 1212.85283892 1583.52972763 1240.31293772 C1583.52968688 1241.17553069 1583.52964613 1242.03812365 1583.52960414 1242.9268558 C1583.52866652 1261.8659885 1583.52676523 1280.80512103 1583.52399612 1299.74425355 C1583.52300879 1306.5213761 1583.52206954 1313.29849866 1583.52114399 1320.07562121 C1583.52091182 1321.76143465 1583.52067563 1323.44724809 1583.5204354 1325.13306152 C1583.51662539 1351.94305301 1583.52088966 1378.75303534 1583.52898584 1405.56302562 C1583.537278 1433.32559773 1583.53418122 1461.08814873 1583.51839195 1488.85071783 C1583.51673505 1491.83831867 1583.51512492 1494.82591953 1583.51355141 1497.81352041 C1583.51316079 1498.54667844 1583.51277017 1499.27983647 1583.51236771 1500.0352114 C1583.50647484 1511.59487122 1583.51054419 1523.15450456 1583.51885843 1534.71416198 C1583.52683867 1546.10951133 1583.52367882 1557.50480561 1583.50981616 1568.90015341 C1583.50271564 1574.98334018 1583.50016445 1581.06642776 1583.51103411 1587.14961123 C1583.55124789 1611.41154591 1583.39239861 1635.30624619 1580.11934822 1659.38540266 C1580.00981046 1660.21667611 1579.90027269 1661.04794955 1579.7874156 1661.90441309 C1579.23294082 1666.0822566 1578.59772549 1670.23434413 1577.86934822 1674.38540266 C1577.6595533 1675.60284163 1577.44975838 1676.82028059 1577.23360604 1678.07461165 C1565.48290079 1744.1744482 1539.49555117 1808.58310602 1499.3908326 1862.66958235 C1498.00495508 1864.53977191 1496.63288045 1866.41973705 1495.25997322 1868.29946516 C1488.60417833 1877.35195436 1481.57073233 1885.97789113 1474.11934822 1894.38540266 C1472.94759041 1895.70798079 1472.94759041 1895.70798079 1471.75216072 1897.05727766 C1469.55480762 1899.51268291 1467.33982675 1901.95090211 1465.11934822 1904.38540266 C1463.825774 1905.81819563 1463.825774 1905.81819563 1462.50606697 1907.27993391 C1454.46429941 1916.16028151 1446.25171253 1924.87659916 1437.12325447 1932.65884016 C1434.86701437 1934.60281312 1432.6857093 1936.61863784 1430.49434822 1938.63540266 C1424.83675172 1943.73850273 1418.87354651 1948.39948893 1412.84249275 1953.04751204 C1411.27535709 1954.26427365 1409.72561309 1955.50335222 1408.17794197 1956.74477766 C1392.84165939 1968.91578222 1376.16350775 1979.75512539 1359.11934822 1989.38540266 C1357.9185865 1990.06481917 1357.9185865 1990.06481917 1356.69356697 1990.75796126 C1282.48052154 2032.49592773 1202.84630523 2048.92207554 1118.23869645 2048.77080533 C1112.04842448 2048.76311125 1105.85817433 2048.7730078 1099.66790556 2048.78053532 C1088.84641 2048.79131382 1078.02497221 2048.79117903 1067.20347756 2048.78339384 C1055.60766509 2048.77510276 1044.011879 2048.77342879 1032.41606491 2048.77960585 C1031.31220972 2048.78018713 1031.31220972 2048.78018713 1030.18605443 2048.78078015 C1027.18820619 2048.78238019 1024.19035799 2048.78402634 1021.19250981 2048.78573097 C993.35220406 2048.80155013 965.51191596 2048.80269678 937.67160767 2048.79428862 C910.84976306 2048.78619208 884.02792679 2048.78302799 857.20608109 2048.78684996 C855.51820742 2048.7870824 853.83033375 2048.78731387 852.14246008 2048.78754437 C845.35878181 2048.78847585 838.57510354 2048.78943186 831.79142527 2048.79042366 C812.8309803 2048.79317402 793.8705353 2048.79488631 774.91009014 2048.79578207 C773.61521712 2048.79584348 773.61521712 2048.79584348 772.29418504 2048.79590612 C744.80759301 2048.79713306 717.32100351 2048.79375792 689.83441227 2048.78723334 C688.49812186 2048.78691722 688.49812186 2048.78691722 687.13483569 2048.78659471 C672.66988458 2048.78316029 658.20493352 2048.7795017 643.73998247 2048.77582419 C586.37578941 2048.7612557 529.01161736 2048.76193312 471.6474244 2048.77651594 C457.18839649 2048.78017982 442.72936858 2048.78381309 428.27034062 2048.78723334 C427.3799233 2048.78744468 426.48950599 2048.78765602 425.57210633 2048.78787377 C398.11200827 2048.79434677 370.65191196 2048.79708432 343.19181317 2048.79578207 C342.3292202 2048.79574132 341.46662724 2048.79570057 340.57789509 2048.79565858 C321.63876238 2048.79472096 302.69962986 2048.79281967 283.76049734 2048.79005056 C276.98337479 2048.78906323 270.20625223 2048.78812398 263.42912967 2048.78719843 C261.74331623 2048.78696626 260.0575028 2048.78673007 258.37168936 2048.78648984 C231.56169788 2048.78267983 204.75171555 2048.7869441 177.94172527 2048.79504028 C150.17915315 2048.80333244 122.41660216 2048.80023566 94.65403305 2048.78444639 C91.66643221 2048.78278949 88.67883135 2048.78117936 85.69123047 2048.77960585 C84.95807245 2048.77921523 84.22491442 2048.77882461 83.46953948 2048.77842215 C71.90987967 2048.77252928 60.35024633 2048.77659863 48.79058891 2048.78491287 C37.39523955 2048.79289311 25.99994528 2048.78973326 14.60459747 2048.7758706 C8.5214107 2048.76877008 2.43832313 2048.76621889 -3.64486034 2048.77708855 C-27.90679502 2048.81730233 -51.80149531 2048.65845305 -75.88065178 2045.38540266 C-76.71192522 2045.2758649 -77.54319866 2045.16632713 -78.39966221 2045.05347004 C-82.57750571 2044.49899526 -86.72959324 2043.86377993 -90.88065178 2043.13540266 C-92.09809074 2042.92560774 -93.31552971 2042.71581282 -94.56986076 2042.49966048 C-160.66969731 2030.74895523 -225.07835513 2004.76160561 -279.16483146 1964.65688704 C-281.03502102 1963.27100952 -282.91498616 1961.89893489 -284.79471428 1960.52602766 C-293.84720347 1953.87023276 -302.47314024 1946.83678677 -310.88065178 1939.38540266 C-311.76237053 1938.60423079 -312.64408928 1937.82305891 -313.55252678 1937.01821516 C-316.00793202 1934.82086206 -318.44615122 1932.60588119 -320.88065178 1930.38540266 C-321.83584709 1929.52301985 -322.7910424 1928.66063704 -323.77518303 1927.77212141 C-332.65553063 1919.73035385 -341.37184827 1911.51776696 -349.15408928 1902.38930891 C-351.09806223 1900.13306881 -353.11388695 1897.95176373 -355.13065178 1895.76040266 C-360.23375184 1890.10280616 -364.89473805 1884.13960095 -369.54276115 1878.10854719 C-370.75952276 1876.54141153 -371.99860134 1874.99166753 -373.24002678 1873.44399641 C-385.41103133 1858.10771383 -396.2503745 1841.42956219 -405.88065178 1824.38540266 C-406.33359611 1823.58489485 -406.78654045 1822.78438704 -407.25321037 1821.95962141 C-448.99117685 1747.74657598 -465.41732466 1668.11235967 -465.26605444 1583.50475089 C-465.25836036 1577.31447892 -465.26825691 1571.12422877 -465.27578444 1564.93396 C-465.28656293 1554.11246444 -465.28642814 1543.29102665 -465.27864296 1532.469532 C-465.27035187 1520.87371953 -465.26867791 1509.27793344 -465.27485496 1497.68211935 C-465.27524248 1496.94621589 -465.27563 1496.21031243 -465.27602926 1495.45210887 C-465.2776293 1492.45426063 -465.27927546 1489.45641243 -465.28098009 1486.45856425 C-465.29679924 1458.6182585 -465.29794589 1430.7779704 -465.28953773 1402.93766211 C-465.28144119 1376.11581749 -465.2782771 1349.29398123 -465.28209907 1322.47213553 C-465.28233151 1320.78426186 -465.28256298 1319.09638819 -465.28279348 1317.40851452 C-465.28372497 1310.62483625 -465.28468097 1303.84115798 -465.28567277 1297.05747971 C-465.28842313 1278.09703474 -465.29013542 1259.13658974 -465.29103119 1240.17614458 C-465.29109259 1238.88127156 -465.29109259 1238.88127156 -465.29115524 1237.56023948 C-465.29238218 1210.07364745 -465.28900703 1182.58705795 -465.28248245 1155.10046671 C-465.2822717 1154.20960644 -465.28206096 1153.31874617 -465.28184382 1152.40089013 C-465.2784094 1137.93593902 -465.27475082 1123.47098796 -465.2710733 1109.00603691 C-465.25650482 1051.64184385 -465.25718223 994.2776718 -465.27176506 936.91347883 C-465.27542893 922.45445093 -465.27906221 907.99542302 -465.28248245 893.53639506 C-465.28269379 892.64597774 -465.28290514 891.75556043 -465.28312289 890.83816077 C-465.28959588 863.37806271 -465.29233343 835.9179664 -465.29103119 808.45786761 C-465.29099043 807.59527464 -465.29094968 806.73268167 -465.29090769 805.84394953 C-465.28997007 786.90481682 -465.28806879 767.9656843 -465.28529968 749.02655178 C-465.28431235 742.24942923 -465.28337309 735.47230667 -465.28244754 728.69518411 C-465.28221538 727.00937067 -465.28197919 725.32355724 -465.28173896 723.6377438 C-465.27792894 696.82775231 -465.28219321 670.01776999 -465.29028939 643.20777971 C-465.29858156 615.44520759 -465.29548477 587.6826566 -465.2796955 559.92008749 C-465.27803861 556.93248665 -465.27642847 553.94488579 -465.27485496 550.95728491 C-465.27446434 550.22412689 -465.27407372 549.49096886 -465.27367126 548.73559392 C-465.2677784 537.1759341 -465.27184774 525.61630077 -465.28016198 514.05664335 C-465.28814222 502.66129399 -465.28498237 491.26599972 -465.27111972 479.87065191 C-465.26401919 473.78746514 -465.261468 467.70437757 -465.27233766 461.6211941 C-465.31255144 437.35925942 -465.15370216 413.46455913 -461.88065178 389.38540266 C-461.77111401 388.55412922 -461.66157625 387.72285578 -461.54871916 386.86639223 C-460.99424437 382.68854873 -460.35902904 378.5364612 -459.63065178 374.38540266 C-459.42085685 373.1679637 -459.21106193 371.95052473 -458.99490959 370.69619368 C-447.24420434 304.59635713 -421.25685472 240.18769931 -381.15213615 186.10122298 C-379.76625863 184.23103342 -378.394184 182.35106828 -377.02127678 180.47134016 C-370.36548188 171.41885097 -363.33203589 162.7929142 -355.88065178 154.38540266 C-355.0994799 153.50368391 -354.31830803 152.62196516 -353.51346428 151.71352766 C-351.31611117 149.25812242 -349.1011303 146.81990322 -346.88065178 144.38540266 C-345.58707756 142.95260969 -345.58707756 142.95260969 -344.26737053 141.49087141 C-336.22560297 132.61052381 -328.01301608 123.89420617 -318.88455803 116.11196516 C-316.62831792 114.16799221 -314.44701285 112.15216749 -312.25565178 110.13540266 C-306.59805527 105.0323026 -300.63485006 100.37131639 -294.60379631 95.72329329 C-293.03666064 94.50653168 -291.48691664 93.2674531 -289.93924553 92.02602766 C-274.60296294 79.85502311 -257.92481131 69.01567994 -240.88065178 59.38540266 C-240.08014396 58.93245833 -239.27963615 58.47951399 -238.45487053 58.01284407 C-164.2418251 16.27487759 -84.60760878 -0.15127022 0 0 Z " fill="#8041E5" transform="translate(464.88065177667886,-0.38540266267955303)"/>
<path d="M0 0 C3.281627 -0.00218274 6.56291457 -0.02040897 9.84448242 -0.03930664 C23.1851148 -0.07416451 36.30517399 0.59133975 49.57580566 1.94088745 C53.01023382 2.27134945 56.4488408 2.52288646 59.88980103 2.77442932 C75.14284919 3.90852773 90.15671919 7.11678707 105.1159668 10.18530273 C106.85233398 10.54132568 106.85233398 10.54132568 108.6237793 10.90454102 C172.92809534 24.34877967 235.12124091 52.52366997 288.1159668 91.18530273 C288.69588379 91.60473145 289.27580078 92.02416016 289.87329102 92.45629883 C306.39713307 104.43238799 322.89092069 117.54382475 337.12768555 132.19702148 C338.94968966 134.01902559 340.82377085 135.66402926 342.8034668 137.31030273 C348.83878646 142.49031762 354.08188729 148.51024872 359.44555664 154.36645508 C360.90610855 155.95679587 362.37681934 157.53644876 363.85424805 159.11108398 C369.33436708 165.01073366 374.35518558 171.16650759 379.2722168 177.53295898 C381.15425063 179.96673547 383.06894201 182.36693342 385.0222168 184.74389648 C414.96787817 221.25285487 437.55389279 263.962568 456.1159668 307.18530273 C456.4646582 307.99676758 456.81334961 308.80823242 457.17260742 309.64428711 C467.69949742 334.52811206 475.63892078 360.99319337 482.1159668 387.18530273 C482.34864258 388.11858398 482.58131836 389.05186523 482.82104492 390.01342773 C487.54185072 409.05804599 491.38413683 428.19620641 494.65893555 447.53881836 C495.06294612 449.87828128 495.48766519 452.21192071 495.9284668 454.54467773 C497.70852744 464.02350063 498.95372433 473.52140236 500.02636719 483.10668945 C500.59073109 488.09411002 501.23718321 493.03126676 502.11206055 497.97436523 C503.35294576 505.19336631 503.97729342 512.45555624 504.6159668 519.74780273 C504.87303716 522.61387427 505.13301819 525.47967848 505.39331055 528.34545898 C505.45594589 529.03938751 505.51858124 529.73331604 505.58311462 530.44827271 C505.97687155 534.77683396 506.4181652 539.09622055 506.9200592 543.41343689 C510.31800663 573.28748435 510.46360042 603.18684885 510.43164062 633.21508789 C510.42703072 637.92026383 510.43386697 642.62517992 510.45214844 647.33032227 C510.57293158 678.7408877 509.69938135 709.87696363 507.1159668 741.18530273 C507.01363739 742.44906738 506.91130798 743.71283203 506.80587769 745.01489258 C506.27100148 751.47857621 505.64404991 757.926769 504.9284668 764.37280273 C504.82747681 765.30381805 504.72648682 766.23483337 504.62243652 767.19406128 C497.88253923 828.79690143 486.58489792 890.95883781 468.1159668 950.18530273 C467.68630385 951.57534646 467.25696348 952.96548992 466.82788086 954.35571289 C444.20530094 1027.55053958 416.46390294 1101.54436735 373.1159668 1171.18530273 C372.70217773 1171.83772949 372.28838867 1172.49015625 371.86206055 1173.16235352 C362.27995887 1188.16327234 351.6468402 1202.62658607 340.1159668 1216.18530273 C339.66543945 1216.71929688 339.21491211 1217.25329102 338.75073242 1217.8034668 C337.25144894 1219.57998761 335.74725772 1221.3522205 334.2409668 1223.12280273 C333.79543457 1223.647854 333.34990234 1224.17290527 332.89086914 1224.71386719 C324.35566758 1234.66960651 315.33217343 1244.13611634 306.04443359 1253.38720703 C304.41540108 1255.01082503 302.79185951 1256.63979877 301.16870117 1258.26928711 C295.6573804 1263.78442752 290.07765084 1269.15372627 284.1159668 1274.18530273 C283.1061521 1275.06210123 282.09699673 1275.93965986 281.08862305 1276.81811523 C272.35968705 1284.29336512 263.33909591 1291.33066983 254.1159668 1298.18530273 C253.45145508 1298.68143066 252.78694336 1299.17755859 252.10229492 1299.6887207 C239.3624591 1309.13627487 225.85354174 1317.27894776 212.1159668 1325.18530273 C211.27807617 1325.66773438 210.44018555 1326.15016602 209.5769043 1326.6472168 C169.29949319 1349.53057871 118.33122645 1365.83082869 72.23706055 1353.15405273 C39.66498028 1343.10052223 17.18241393 1320.46364201 1.3659668 1290.87280273 C-10.8840332 1267.34605485 -10.8840332 1267.34605485 -10.8840332 1259.18530273 C-11.53867554 1259.68960815 -11.53867554 1259.68960815 -12.20654297 1260.20410156 C-17.41902532 1264.21543187 -22.64587447 1268.20756199 -27.8840332 1272.18530273 C-28.52920898 1272.67562988 -29.17438477 1273.16595703 -29.83911133 1273.67114258 C-76.53186404 1308.99292557 -130.77027193 1335.12353657 -187.8840332 1348.18530273 C-188.94074219 1348.43425293 -188.94074219 1348.43425293 -190.01879883 1348.68823242 C-195.61543127 1349.99771666 -201.23168758 1351.14314136 -206.8840332 1352.18530273 C-207.7011377 1352.33918457 -208.51824219 1352.49306641 -209.36010742 1352.65161133 C-260.50727522 1361.81865845 -319.93989047 1355.40307785 -363.73120117 1325.94262695 C-394.9543622 1303.90532165 -416.20688248 1271.9364444 -423.44995117 1234.23999023 C-424.33992412 1228.94778244 -425.04772981 1223.64251104 -425.6340332 1218.30859375 C-425.84595948 1216.50866913 -426.13416475 1214.71798179 -426.4387207 1212.93139648 C-432.96179636 1158.05745305 -412.44437135 1102.96052246 -391.8840332 1053.18530273 C-392.6418811 1053.53141602 -392.6418811 1053.53141602 -393.41503906 1053.88452148 C-407.92730612 1060.451951 -422.60380944 1065.70420455 -437.8840332 1070.18530273 C-438.9486377 1070.50273438 -440.01324219 1070.82016602 -441.11010742 1071.1472168 C-465.42988073 1078.29685617 -491.45299271 1082.82997992 -516.8840332 1081.18530273 C-517.56739746 1081.14131348 -518.25076172 1081.09732422 -518.95483398 1081.05200195 C-539.82867276 1079.48809835 -560.08259554 1073.36680884 -575.8840332 1059.18530273 C-576.76575195 1058.40799805 -577.6474707 1057.63069336 -578.5559082 1056.82983398 C-594.6212337 1041.80742326 -603.75357081 1019.77695584 -605.08544922 997.87280273 C-605.18762543 994.26575637 -605.21268258 990.66873768 -605.1965332 987.06030273 C-605.19234375 985.78074707 -605.1881543 984.50119141 -605.18383789 983.18286133 C-605.06885241 973.52041092 -604.18648743 964.55322808 -601.8840332 955.18530273 C-601.44897461 953.29038086 -601.44897461 953.29038086 -601.00512695 951.35717773 C-597.57066144 937.3893933 -591.98540252 924.97957344 -585.16137695 912.41967773 C-583.03071588 908.49247182 -581.03777472 904.50917975 -579.0715332 900.49780273 C-576.48067977 895.24159021 -573.75234582 890.08262687 -570.91235352 884.95678711 C-546.12952685 840.21230991 -527.09566231 793.73220145 -515.3215332 743.87280273 C-515.13913086 743.12836914 -514.95672852 742.38393555 -514.76879883 741.61694336 C-500.90247595 683.37838726 -495.72990143 622.9465557 -489.7746582 563.5065918 C-487.78886719 543.71208985 -485.65242958 523.94165683 -483.34736633 504.18174744 C-482.70169246 498.63222341 -482.07746408 493.0802672 -481.45207214 487.52842712 C-477.19354541 450.58799939 -470.3384184 413.84117456 -459.1418457 378.33764648 C-457.86609804 374.24517727 -456.88027193 370.11715004 -455.9465332 365.93530273 C-448.24762061 332.0409695 -436.02100736 298.4459787 -420.8840332 267.18530273 C-420.5029541 266.3905957 -420.121875 265.59588867 -419.72924805 264.77709961 C-412.51984188 249.79607285 -404.46405122 235.42145095 -395.8840332 221.18530273 C-395.42109863 220.41428223 -394.95816406 219.64326172 -394.48120117 218.84887695 C-385.28484606 203.60293015 -374.95324925 189.125497 -363.8840332 175.18530273 C-363.38258789 174.55237305 -362.88114258 173.91944336 -362.36450195 173.26733398 C-355.93301241 165.17711477 -349.34264202 157.32356985 -342.28637695 149.77124023 C-340.32228629 147.65704833 -338.43452972 145.51244824 -336.5715332 143.31030273 C-329.3036826 134.93647487 -321.24616237 126.96660821 -312.7824707 119.80639648 C-310.55503287 117.90436624 -308.41380349 115.91922554 -306.2590332 113.93530273 C-300.61075368 108.8406065 -294.65810593 104.18267091 -288.63793945 99.54077148 C-286.98474969 98.26313931 -285.33956184 96.97596114 -283.6965332 95.68530273 C-280.44926688 93.152435 -277.17989482 90.65441215 -273.8840332 88.18530273 C-273.29944336 87.74669922 -272.71485352 87.3080957 -272.11254883 86.85620117 C-241.83449208 64.34876154 -206.81194332 44.57203502 -171.0793457 32.32202148 C-168.11274115 31.26666461 -165.26472173 30.07829811 -162.3840332 28.81030273 C-112.00322583 7.54136031 -54.3199422 -0.0040234 0 0 Z " fill="#FEFEFE" transform="translate(1071.884033203125,345.814697265625)"/>
<path d="M0 0 C1.43659932 1.2058099 2.8538152 2.43511701 4.25 3.6875 C4.93835937 4.29464844 5.62671875 4.90179687 6.3359375 5.52734375 C18.86773548 17.26690163 25.06408818 33.39435443 29.25 49.6875 C29.52714844 50.66203125 29.80429688 51.6365625 30.08984375 52.640625 C40.40116574 90.19230507 36.14584198 136.85472688 18.4375 171.4375 C9.84204082 186.4238835 -2.90623852 197.17172381 -19.58374023 202.24536133 C-24.26287444 203.20038354 -29.11755311 202.91547478 -33.875 202.9375 C-35.51082031 202.9684375 -35.51082031 202.9684375 -37.1796875 203 C-51.88210745 203.07034651 -62.77001475 198.07898532 -73.40234375 188.0546875 C-81.09150195 180.3015596 -85.62686602 171.68197677 -89.75 161.6875 C-90.21535156 160.56988281 -90.68070313 159.45226562 -91.16015625 158.30078125 C-106.38335648 117.47281 -104.27340443 61.98694754 -86.26171875 22.41796875 C-79.10989412 8.02897553 -68.88757174 -1.93624825 -54.1484375 -8.46484375 C-37.06706316 -14.20270479 -14.30330834 -10.78287272 0 0 Z " fill="#000000" transform="translate(1121.75,734.3125)"/>
<path d="M0 0 C15.9007424 11.30784057 24.52949598 30.61641516 29 49 C29.27457031 49.99386719 29.54914063 50.98773437 29.83203125 52.01171875 C33.74735997 66.45793163 34.37627931 80.75376276 34.3125 95.625 C34.31067719 96.50673889 34.30885437 97.38847778 34.30697632 98.29693604 C34.26143363 111.38207862 33.91619969 124.1886369 31 137 C30.74259033 138.15218018 30.74259033 138.15218018 30.47998047 139.32763672 C27.01215192 154.28051675 21.73539095 168.94665883 12 181 C11.38382813 181.77859375 10.76765625 182.5571875 10.1328125 183.359375 C1.51246022 193.67610182 -10.42955491 201.44637428 -24 203 C-27.75094434 203.18628552 -31.49487454 203.23066859 -35.25 203.25 C-36.72919922 203.2809375 -36.72919922 203.2809375 -38.23828125 203.3125 C-52.82581034 203.38937762 -64.0257122 197.55735619 -74.55078125 187.66015625 C-83.34591869 178.10754286 -87.87145384 167.11491413 -92 155 C-92.32798584 154.20827393 -92.65597168 153.41654785 -92.99389648 152.60083008 C-107.21859985 115.82922976 -102.64797373 61.7789414 -88 26 C-81.03551817 10.48016485 -69.96195735 -1.66364778 -54 -8 C-36.00113943 -13.44064936 -15.60626678 -10.41258187 0 0 Z " fill="#000000" transform="translate(1352,734)"/>
</svg>
